<svg width="29" height="20" viewBox="0 0 29 20" fill="none" xmlns="http://www.w3.org/2000/svg">
<path d="M26.5 20C25.7293 20 25.1144 19.7826 24.6563 19.3478C24.2188 18.8924 24 18.2918 24 17.5465C24 16.7598 24.2188 16.1386 24.6563 15.6832C25.1144 15.2278 25.7293 15 26.5 15C27.2707 15 27.8751 15.2278 28.3125 15.6832C28.7707 16.1386 29 16.7598 29 17.5465C29 18.2918 28.7707 18.8924 28.3125 19.3478C27.8751 19.7826 27.2707 20 26.5 20Z" fill="#04969D"/>
<path d="M3.67546 10.1621C4.01446 10.438 4.28761 10.7847 4.4754 11.1775C4.95535 12.1571 4.95535 13.3546 4.95535 14.5164C4.95535 16.9219 5.05535 18.0789 7.35515 18.0789C7.56729 18.0789 7.77075 18.1622 7.92078 18.3107C8.0708 18.459 8.15508 18.6605 8.15508 18.8704C8.15508 19.0804 8.0708 19.2817 7.92078 19.4304C7.77075 19.5787 7.56729 19.6622 7.35515 19.6622C5.60729 19.6622 4.4234 19.0545 3.83545 17.8551C3.35549 16.8754 3.35549 15.6781 3.35549 14.5164C3.35549 12.1106 3.2555 10.9539 0.955699 10.9539C0.743551 10.9539 0.540091 10.8704 0.39006 10.7219C0.240048 10.5734 0.155762 10.3721 0.155762 10.1621C0.155762 9.95222 0.240048 9.75075 0.39006 9.60243C0.540091 9.45377 0.743551 9.37044 0.955699 9.37044C3.2555 9.37044 3.35549 8.21375 3.35549 5.80795C3.35549 4.64817 3.35549 3.44879 3.83545 2.46905C4.4254 1.26984 5.60929 0.662173 7.35715 0.662173C7.56929 0.662173 7.77275 0.745502 7.92278 0.893989C8.0728 1.04248 8.15708 1.24395 8.15708 1.45382C8.15708 1.66386 8.0728 1.86516 7.92278 2.01364C7.77275 2.16196 7.56929 2.24546 7.35715 2.24546C5.05735 2.24546 4.95735 3.40232 4.95735 5.80795C4.95735 6.96773 4.95735 8.16711 4.4774 9.14668C4.28903 9.53968 4.01519 9.88637 3.67546 10.1621ZM23.3557 9.37044C21.0559 9.37044 20.9559 8.21375 20.9559 5.80795C20.9559 4.64817 20.9559 3.44879 20.4761 2.46905C19.888 1.26984 18.7041 0.662173 16.9563 0.662173C16.7441 0.662173 16.5407 0.745502 16.3906 0.893989C16.2408 1.04248 16.1564 1.24395 16.1564 1.45382C16.1564 1.66386 16.2408 1.86516 16.3906 2.01364C16.5407 2.16196 16.7441 2.24546 16.9563 2.24546C19.2561 2.24546 19.356 3.40232 19.356 5.80795C19.356 6.96773 19.356 8.16711 19.836 9.14668C20.0239 9.53951 20.2969 9.8862 20.6359 10.1621C20.2969 10.438 20.0239 10.7847 19.836 11.1775C19.356 12.1571 19.356 13.3546 19.356 14.5164C19.356 16.9219 19.2561 18.0789 16.9563 18.0789C16.7441 18.0789 16.5407 18.1622 16.3906 18.3107C16.2408 18.459 16.1564 18.6605 16.1564 18.8704C16.1564 19.0804 16.2408 19.2817 16.3906 19.4304C16.5407 19.5787 16.7441 19.6622 16.9563 19.6622C18.7041 19.6622 19.888 19.0545 20.4761 17.8551C20.9559 16.8754 20.9559 15.6781 20.9559 14.5164C20.9559 12.1106 21.0559 10.9539 23.3557 10.9539C23.5678 10.9539 23.7713 10.8704 23.9215 10.7219C24.0715 10.5734 24.1558 10.3721 24.1558 10.1621C24.1558 9.95222 24.0715 9.75075 23.9215 9.60243C23.7713 9.45377 23.5678 9.37044 23.3557 9.37044Z" fill="#F4F4F4"/>
</svg>
