<svg width="35" height="35" viewBox="0 0 35 35" fill="none" xmlns="http://www.w3.org/2000/svg">
<path d="M33.9063 16.9531C33.9049 15.5043 33.4932 14.0856 32.7189 12.8611C31.9447 11.6365 30.8395 10.6563 29.5313 10.0338V9.84374C29.53 8.43446 29.0751 7.06303 28.2339 5.93237C27.3927 4.8017 26.2099 3.97186 24.8604 3.56565C23.511 3.15943 22.0666 3.19841 20.741 3.67682C19.4154 4.15523 18.2791 5.04766 17.5 6.22206C16.721 5.04766 15.5847 4.15523 14.2591 3.67682C12.9335 3.19841 11.4891 3.15943 10.1397 3.56565C8.79022 3.97186 7.60738 4.8017 6.76617 5.93237C5.92495 7.06303 5.47006 8.43446 5.4688 9.84374V10.0338C4.15949 10.6546 3.05325 11.6342 2.27861 12.8588C1.50398 14.0834 1.09277 15.5027 1.09277 16.9517C1.09277 18.4008 1.50398 19.8201 2.27861 21.0447C3.05325 22.2693 4.15949 23.2489 5.4688 23.8697V24.0625C5.47006 25.4718 5.92495 26.8432 6.76617 27.9739C7.60738 29.1045 8.79022 29.9344 10.1397 30.3406C11.4891 30.7468 12.9335 30.7078 14.2591 30.2294C15.5847 29.751 16.721 28.8586 17.5 27.6842C18.2791 28.8586 19.4154 29.751 20.741 30.2294C22.0666 30.7078 23.511 30.7468 24.8604 30.3406C26.2099 29.9344 27.3927 29.1045 28.2339 27.9739C29.0751 26.8432 29.53 25.4718 29.5313 24.0625V23.8697C30.8393 23.2477 31.9444 22.2679 32.7186 21.0438C33.4929 19.8198 33.9047 18.4015 33.9063 16.9531ZM12.0313 28.4375C10.9525 28.4373 9.91182 28.0386 9.10911 27.3179C8.30639 26.5972 7.79824 25.6053 7.68228 24.5328C8.03597 24.5833 8.39277 24.6088 8.75005 24.6094H9.8438C10.1339 24.6094 10.4121 24.4941 10.6172 24.289C10.8223 24.0839 10.9375 23.8057 10.9375 23.5156C10.9375 23.2255 10.8223 22.9473 10.6172 22.7422C10.4121 22.5371 10.1339 22.4219 9.8438 22.4219H8.75005C7.45882 22.4234 6.20871 21.9679 5.22104 21.1362C4.23336 20.3045 3.57184 19.1501 3.35359 17.8775C3.13535 16.6048 3.37445 15.296 4.02857 14.1827C4.68269 13.0694 5.70964 12.2235 6.92759 11.7947C7.14069 11.7193 7.32519 11.5796 7.45568 11.395C7.58618 11.2104 7.65626 10.9899 7.6563 10.7639V9.84374C7.6563 8.68341 8.11723 7.57061 8.93771 6.75014C9.75818 5.92967 10.871 5.46874 12.0313 5.46874C13.1916 5.46874 14.3044 5.92967 15.1249 6.75014C15.9454 7.57061 16.4063 8.68341 16.4063 9.84374V19.1762C15.2052 18.0959 13.6467 17.4988 12.0313 17.5C11.7412 17.5 11.463 17.6152 11.2579 17.8203C11.0528 18.0255 10.9375 18.3037 10.9375 18.5937C10.9375 18.8838 11.0528 19.162 11.2579 19.3671C11.463 19.5723 11.7412 19.6875 12.0313 19.6875C13.1916 19.6875 14.3044 20.1484 15.1249 20.9689C15.9454 21.7894 16.4063 22.9022 16.4063 24.0625C16.4063 25.2228 15.9454 26.3356 15.1249 27.1561C14.3044 27.9766 13.1916 28.4375 12.0313 28.4375ZM26.25 22.4219H25.1563C24.8662 22.4219 24.588 22.5371 24.3829 22.7422C24.1778 22.9473 24.0625 23.2255 24.0625 23.5156C24.0625 23.8057 24.1778 24.0839 24.3829 24.289C24.588 24.4941 24.8662 24.6094 25.1563 24.6094H26.25C26.6073 24.6088 26.9641 24.5833 27.3178 24.5328C27.227 25.3732 26.8946 26.1692 26.3609 26.8247C25.8273 27.4802 25.1151 27.9671 24.3106 28.2264C23.5062 28.4858 22.6438 28.5066 21.8277 28.2862C21.0117 28.0659 20.2769 27.6139 19.7123 26.9848C19.1477 26.3558 18.7774 25.5767 18.6462 24.7417C18.515 23.9066 18.6285 23.0515 18.9729 22.2796C19.3174 21.5077 19.8781 20.8521 20.5872 20.3921C21.2963 19.9321 22.1235 19.6874 22.9688 19.6875C23.2589 19.6875 23.5371 19.5723 23.7422 19.3671C23.9473 19.162 24.0625 18.8838 24.0625 18.5937C24.0625 18.3037 23.9473 18.0255 23.7422 17.8203C23.5371 17.6152 23.2589 17.5 22.9688 17.5C21.3534 17.4988 19.7949 18.0959 18.5938 19.1762V9.84374C18.5938 8.68341 19.0547 7.57061 19.8752 6.75014C20.6957 5.92967 21.8085 5.46874 22.9688 5.46874C24.1291 5.46874 25.2419 5.92967 26.0624 6.75014C26.8829 7.57061 27.3438 8.68341 27.3438 9.84374V10.7639C27.3438 10.9899 27.4139 11.2104 27.5444 11.395C27.6749 11.5796 27.8594 11.7193 28.0725 11.7947C29.2905 12.2235 30.3174 13.0694 30.9715 14.1827C31.6257 15.296 31.8648 16.6048 31.6465 17.8775C31.4283 19.1501 30.7667 20.3045 29.7791 21.1362C28.7914 21.9679 27.5413 22.4234 26.25 22.4219ZM28.4375 15.3125C28.4375 15.6026 28.3223 15.8808 28.1172 16.0859C27.9121 16.291 27.6339 16.4062 27.3438 16.4062H26.7969C25.4916 16.4062 24.2397 15.8877 23.3166 14.9647C22.3936 14.0416 21.875 12.7897 21.875 11.4844V10.9375C21.875 10.6474 21.9903 10.3692 22.1954 10.1641C22.4005 9.95897 22.6787 9.84374 22.9688 9.84374C23.2589 9.84374 23.5371 9.95897 23.7422 10.1641C23.9473 10.3692 24.0625 10.6474 24.0625 10.9375V11.4844C24.0625 12.2096 24.3506 12.9051 24.8634 13.4179C25.3762 13.9307 26.0717 14.2187 26.7969 14.2187H27.3438C27.6339 14.2187 27.9121 14.334 28.1172 14.5391C28.3223 14.7442 28.4375 15.0224 28.4375 15.3125ZM8.20317 16.4062H7.6563C7.36622 16.4062 7.08802 16.291 6.8829 16.0859C6.67778 15.8808 6.56255 15.6026 6.56255 15.3125C6.56255 15.0224 6.67778 14.7442 6.8829 14.5391C7.08802 14.334 7.36622 14.2187 7.6563 14.2187H8.20317C8.92838 14.2187 9.62387 13.9307 10.1367 13.4179C10.6495 12.9051 10.9375 12.2096 10.9375 11.4844V10.9375C10.9375 10.6474 11.0528 10.3692 11.2579 10.1641C11.463 9.95897 11.7412 9.84374 12.0313 9.84374C12.3214 9.84374 12.5996 9.95897 12.8047 10.1641C13.0098 10.3692 13.125 10.6474 13.125 10.9375V11.4844C13.125 12.7897 12.6065 14.0416 11.6835 14.9647C10.7604 15.8877 9.50854 16.4062 8.20317 16.4062Z" fill="#F4F4F4"/>
</svg>
