<svg width="46" height="46" viewBox="0 0 46 46" fill="none" xmlns="http://www.w3.org/2000/svg">
<path d="M38.6379 0H0V38.6379C0 40.5888 0.780357 42.4576 2.15625 43.8438C3.53214 45.2299 5.41116 46 7.36205 46H38.6379C40.5888 46 42.4576 45.2196 43.8438 43.8438C45.2299 42.4679 46 40.5888 46 38.6379V7.36205C46 5.41116 45.2196 3.54241 43.8438 2.15625C42.4679 0.770089 40.5888 0 38.6379 0ZM34.1304 41.0098C33.3397 40.1371 32.929 38.8844 32.8982 37.2518H36.1121C36.1326 38.6996 36.6357 39.4183 37.6317 39.4183C38.1348 39.4183 38.4942 39.254 38.7098 38.9357C38.9152 38.6174 39.0179 38.1143 39.0179 37.4161C39.0179 36.8616 38.8844 36.3996 38.6071 36.0402C38.2478 35.6089 37.7754 35.2701 37.2518 35.0647L36.0607 34.5C35.0031 33.9969 34.233 33.3911 33.7505 32.6929C33.2884 31.9946 33.0625 31.0192 33.0625 29.7768C33.0625 28.3804 33.4732 27.2509 34.2741 26.3781C35.1058 25.5054 36.2353 25.0741 37.683 25.0741C39.0795 25.0741 40.1576 25.5054 40.9174 26.3576C41.6875 27.2201 42.0982 28.442 42.129 30.0438H39.0384C39.0589 29.5201 38.946 28.9964 38.7304 28.5241C38.5558 28.175 38.217 28.0004 37.7036 28.0004C36.8 28.0004 36.3482 28.5344 36.3482 29.6125C36.3482 30.1567 36.4612 30.5777 36.6768 30.9063C36.9951 31.2656 37.3955 31.5429 37.8473 31.7071L38.9871 32.2103C40.1679 32.7545 41.0098 33.4116 41.5335 34.2022C42.0571 34.9929 42.3138 36.0504 42.3138 37.3853C42.3138 38.9768 41.9031 40.1987 41.0509 41.0509C40.2089 41.9031 39.0487 42.3344 37.5496 42.3344C36.0504 42.3344 34.921 41.9031 34.1201 41.0304L34.1304 41.0098ZM23.7598 41.0098C22.9692 40.1371 22.5585 38.8844 22.5277 37.2518H25.7415C25.7621 38.6996 26.2652 39.4183 27.2612 39.4183C27.7643 39.4183 28.1237 39.254 28.329 38.9357C28.5344 38.6174 28.6371 38.1143 28.6371 37.4161C28.6371 36.8616 28.5036 36.3996 28.2366 36.0402C27.8772 35.6089 27.4049 35.2701 26.8813 35.0647L25.6902 34.5C24.6326 33.9969 23.8625 33.3911 23.3799 32.6929C22.9179 31.9946 22.692 31.0192 22.692 29.7768C22.692 28.3804 23.1027 27.2509 23.9036 26.3781C24.7353 25.5054 25.8647 25.0741 27.3125 25.0741C28.7089 25.0741 29.7871 25.5054 30.5366 26.3576C31.317 27.2201 31.7174 28.442 31.7585 30.0438H28.6679C28.6884 29.5201 28.5754 28.9964 28.3598 28.5241C28.1853 28.175 27.8464 28.0004 27.333 28.0004C26.4295 28.0004 25.9777 28.5344 25.9777 29.6125C25.9777 30.1567 26.0906 30.5777 26.3063 30.9063C26.6246 31.2656 27.025 31.5429 27.4768 31.7071L28.6165 32.2103C29.7973 32.7545 30.6393 33.4116 31.1629 34.2022C31.6866 34.9929 31.9433 36.0504 31.9433 37.3853C31.9433 38.9768 31.5223 40.1987 30.6804 41.0509C29.8384 41.9031 28.6781 42.3344 27.179 42.3344C25.6799 42.3344 24.5504 41.9031 23.7496 41.0304L23.7598 41.0098ZM12.917 41.1228C12.0545 40.3321 11.6335 39.1513 11.6335 37.5804V29.8384C11.6335 28.2777 12.0853 27.0969 12.9888 26.2857C13.9027 25.4848 15.1143 25.0741 16.6031 25.0741C18.0509 25.0741 19.1906 25.4848 20.0326 26.3063C20.8848 27.1277 21.3161 28.3598 21.3161 29.9924V30.6085H17.9174V30.0129C17.9174 29.3866 17.7839 28.9143 17.5067 28.6165C17.3938 28.4625 17.2397 28.3393 17.0652 28.2571C16.8906 28.175 16.7058 28.1339 16.5107 28.1442C15.9563 28.1442 15.5661 28.329 15.3402 28.7192C15.104 29.2531 15.0013 29.8281 15.0321 30.4031V37.1286C15.0321 38.5353 15.525 39.2438 16.5107 39.2643C16.9728 39.2643 17.3219 39.1 17.558 38.7714C17.8147 38.3504 17.9379 37.8679 17.9174 37.375V36.8719H21.3161V37.3955C21.3161 38.4839 21.1004 39.3978 20.6795 40.1268C20.2687 40.8353 19.6629 41.4103 18.9237 41.7696C18.133 42.1496 17.2705 42.3344 16.3978 42.3138C14.9397 42.3138 13.7795 41.9134 12.9272 41.1228H12.917Z" fill="#F4F4F4"/>
</svg>
