<svg width="42" height="41" viewBox="0 0 42 41" fill="none" xmlns="http://www.w3.org/2000/svg">
<path d="M36.0383 7.65527H5.417C5.07861 7.65527 4.75409 7.7897 4.51481 8.02897C4.27554 8.26825 4.14111 8.59277 4.14111 8.93116V30.6213C4.14111 31.298 4.40996 31.9471 4.88851 32.4256C5.36706 32.9042 6.01612 33.173 6.69289 33.173H34.7624C35.4392 33.173 36.0882 32.9042 36.5668 32.4256C37.0453 31.9471 37.3142 31.298 37.3142 30.6213V8.93116C37.3142 8.59277 37.1798 8.26825 36.9405 8.02897C36.7012 7.7897 36.3767 7.65527 36.0383 7.65527ZM20.7277 21.2355L8.69763 10.207H32.7577L20.7277 21.2355ZM16.0563 20.4141L6.69289 28.9961V11.8322L16.0563 20.4141ZM17.9446 22.1446L19.8585 23.9069C20.0938 24.123 20.4017 24.2429 20.7213 24.2429C21.0408 24.2429 21.3487 24.123 21.5841 23.9069L23.4979 22.1446L32.7481 30.6213H8.69763L17.9446 22.1446ZM25.399 20.4141L34.7624 11.8306V28.9977L25.399 20.4141Z" fill="#B9B8B8"/>
</svg>
