<svg width="23" height="15" viewBox="0 0 23 15" fill="none" xmlns="http://www.w3.org/2000/svg">
<path d="M22.4353 7.16966C22.4025 7.09587 21.6084 5.34081 19.8431 3.58203C17.4909 1.23853 14.52 0 11.25 0C7.97999 0 5.00905 1.23853 2.65687 3.58203C0.891554 5.34081 0.093741 7.09867 0.0646785 7.16966C0.0220346 7.26522 0 7.36863 0 7.47322C0 7.5778 0.0220346 7.68121 0.0646785 7.77678C0.097491 7.85057 0.891554 9.60469 2.65687 11.3635C5.00905 13.706 7.97999 14.9446 11.25 14.9446C14.52 14.9446 17.4909 13.706 19.8431 11.3635C21.6084 9.60469 22.4025 7.85057 22.4353 7.77678C22.4779 7.68121 22.5 7.5778 22.5 7.47322C22.5 7.36863 22.4779 7.26522 22.4353 7.16966ZM11.25 13.4501C8.36437 13.4501 5.84343 12.4049 3.75655 10.3444C2.90028 9.49605 2.17179 8.52863 1.59374 7.47228C2.17164 6.41583 2.90014 5.44839 3.75655 4.60012C5.84343 2.53964 8.36437 1.49446 11.25 1.49446C14.1356 1.49446 16.6566 2.53964 18.7434 4.60012C19.6014 5.44819 20.3315 6.41563 20.9109 7.47228C20.235 8.72949 17.2903 13.4501 11.25 13.4501ZM11.25 2.98891C10.36 2.98891 9.48995 3.25186 8.74993 3.7445C8.0099 4.23714 7.43313 4.93734 7.09253 5.75657C6.75194 6.5758 6.66282 7.47726 6.83646 8.34694C7.01009 9.21663 7.43867 10.0155 8.06801 10.6425C8.69735 11.2695 9.49917 11.6965 10.3721 11.8695C11.245 12.0425 12.1498 11.9537 12.9721 11.6144C13.7943 11.275 14.4971 10.7004 14.9916 9.96311C15.4861 9.22582 15.75 8.35901 15.75 7.47228C15.7488 6.2836 15.2742 5.14395 14.4306 4.30343C13.587 3.4629 12.4431 2.99015 11.25 2.98891ZM11.25 10.4612C10.6566 10.4612 10.0766 10.2859 9.58328 9.95747C9.08993 9.62905 8.70542 9.16224 8.47835 8.61609C8.25129 8.06994 8.19188 7.46897 8.30764 6.88917C8.42339 6.30938 8.70911 5.77681 9.12867 5.3588C9.54823 4.94079 10.0828 4.65613 10.6647 4.5408C11.2467 4.42547 11.8499 4.48466 12.398 4.71089C12.9462 4.93711 13.4148 5.32021 13.7444 5.81173C14.074 6.30326 14.25 6.88113 14.25 7.47228C14.25 8.26499 13.9339 9.02523 13.3713 9.58576C12.8087 10.1463 12.0456 10.4612 11.25 10.4612Z" fill="#F4F4F4"/>
</svg>
