<svg width="35" height="52" viewBox="0 0 35 52" fill="none" xmlns="http://www.w3.org/2000/svg">
<path d="M0 10.3179C0 5.13946 4.2177 0.939941 9.41854 0.939941H25.5815C30.7823 0.939941 35 5.13946 35 10.3179C35 13.5972 33.309 16.485 30.743 18.1589C33.309 19.8329 35 22.7207 35 26C35 31.1784 30.7823 35.3779 25.5815 35.3779H25.375C22.9368 35.3779 20.7149 34.4578 19.0435 32.9405V41.5842C19.0435 46.8312 14.7177 51.0601 9.4677 51.0601C4.27669 51.0601 0 46.8703 0 41.6821C0 38.4028 1.69101 35.515 4.24719 33.8411C1.69101 32.1671 0 29.2793 0 26C0 22.7207 1.69101 19.8329 4.24719 18.1589C1.69101 16.485 0 13.5972 0 10.3179ZM15.9565 19.6958H9.41854C5.91854 19.6958 3.08708 22.5151 3.08708 26C3.08708 29.4653 5.89888 32.2846 9.37921 32.3042C9.38905 32.3042 9.40871 32.3042 9.41854 32.3042H15.9565V19.6958ZM19.0435 26C19.0435 29.4849 21.875 32.3042 25.375 32.3042H25.5815C29.0716 32.3042 31.9129 29.4849 31.9129 26C31.9129 22.5151 29.0716 19.6958 25.5815 19.6958H25.375C21.875 19.6958 19.0435 22.5151 19.0435 26ZM9.41854 35.3779C9.40871 35.3779 9.38905 35.3779 9.37921 35.3779C5.89888 35.3975 3.08708 38.2168 3.08708 41.6821C3.08708 45.1572 5.95787 47.9863 9.4677 47.9863C13.0365 47.9863 15.9565 45.1083 15.9565 41.5842V35.3779H9.41854ZM9.41854 4.01371C5.91854 4.01371 3.08708 6.83297 3.08708 10.3179C3.08708 13.8028 5.91854 16.6221 9.41854 16.6221H15.9565V4.01371H9.41854ZM19.0435 16.6221H25.5815C29.0716 16.6221 31.9129 13.8028 31.9129 10.3179C31.9129 6.83297 29.0716 4.01371 25.5815 4.01371H19.0435V16.6221Z" fill="#F4F4F4"/>
</svg>
