<svg width="16" height="20" viewBox="0 0 16 20" fill="none" xmlns="http://www.w3.org/2000/svg">
<path d="M13.0973 12.4233C12.9157 13.4376 12.4277 14.372 11.699 15.1005C10.9702 15.8291 10.0358 16.3169 9.02144 16.4983C8.98293 16.5044 8.94401 16.5076 8.90501 16.5079C8.72935 16.5078 8.56011 16.4418 8.43087 16.3228C8.30163 16.2038 8.22183 16.0406 8.20728 15.8655C8.19274 15.6905 8.24452 15.5163 8.35236 15.3777C8.4602 15.239 8.61621 15.1459 8.78946 15.1169C10.24 14.8726 11.4708 13.6418 11.7168 12.1887C11.7479 12.0055 11.8505 11.8422 12.002 11.7347C12.1536 11.6271 12.3416 11.5842 12.5248 11.6153C12.708 11.6464 12.8713 11.749 12.9788 11.9005C13.0863 12.0521 13.1293 12.2401 13.0982 12.4233H13.0973ZM15.9082 11.6057C15.9082 13.6488 15.0966 15.6082 13.6519 17.0529C12.2072 18.4975 10.2478 19.3092 8.2047 19.3092C6.16161 19.3092 4.2022 18.4975 2.75752 17.0529C1.31284 15.6082 0.501221 13.6488 0.501221 11.6057C0.501221 9.16157 1.46416 6.66232 3.36026 4.17795C3.42028 4.09928 3.49629 4.03422 3.58328 3.98707C3.67026 3.93991 3.76626 3.91173 3.86493 3.90436C3.9636 3.897 4.06272 3.91063 4.15574 3.94436C4.24876 3.97809 4.33358 4.03115 4.40461 4.10003L6.51606 6.14933L8.44193 0.861073C8.48041 0.7556 8.54368 0.660923 8.62641 0.585025C8.70914 0.509126 8.80891 0.454231 8.9173 0.424966C9.02569 0.395701 9.13952 0.392926 9.24921 0.416872C9.3589 0.440819 9.46122 0.490787 9.54755 0.562563C11.462 2.15141 15.9082 6.40145 15.9082 11.6057ZM14.5075 11.6057C14.5075 7.57098 11.3745 4.08428 9.41187 2.2976L7.46236 7.64363C7.42235 7.75344 7.3555 7.85148 7.2679 7.92883C7.18029 8.00618 7.07473 8.06038 6.96082 8.08648C6.84691 8.11259 6.72827 8.10977 6.61573 8.07829C6.50318 8.04681 6.40031 7.98767 6.31647 7.90625L4.00805 5.66699C2.61005 7.68478 1.90185 9.6798 1.90185 11.6057C1.90185 13.2773 2.5659 14.8804 3.74791 16.0625C4.92993 17.2445 6.53308 17.9085 8.2047 17.9085C9.87632 17.9085 11.4795 17.2445 12.6615 16.0625C13.8435 14.8804 14.5075 13.2773 14.5075 11.6057Z" fill="#04969D"/>
</svg>
