<svg width="42" height="41" viewBox="0 0 42 41" fill="none" xmlns="http://www.w3.org/2000/svg">
<g clip-path="url(#clip0_1227_36)">
<path d="M34.0509 12.0699C34.4409 10.8119 34.566 9.48667 34.4183 8.17788C34.2706 6.86909 33.8534 5.6051 33.1929 4.4656C33.0808 4.2716 32.9197 4.11051 32.7257 3.99852C32.5317 3.88654 32.3116 3.82761 32.0876 3.82766C30.6015 3.82455 29.1353 4.16906 27.806 4.83367C26.4768 5.49828 25.3215 6.46457 24.4323 7.65532H20.6046C19.7154 6.46457 18.5601 5.49828 17.2309 4.83367C15.9017 4.16906 14.4354 3.82455 12.9493 3.82766C12.7253 3.82761 12.5052 3.88654 12.3112 3.99852C12.1172 4.11051 11.9561 4.2716 11.8441 4.4656C11.1835 5.6051 10.7663 6.86909 10.6186 8.17788C10.4709 9.48667 10.596 10.8119 10.986 12.0699C10.1977 13.4458 9.77547 15.0009 9.75958 16.5865V17.8624C9.76227 20.0212 10.546 22.1062 11.9659 23.7322C13.3859 25.3583 15.3463 26.4157 17.4851 26.7091C16.6121 27.8262 16.1382 29.2035 16.139 30.6213V31.8972H12.3114C11.2962 31.8972 10.3226 31.4939 9.60479 30.7761C8.88697 30.0583 8.4837 29.0847 8.4837 28.0695C8.4837 27.2318 8.31869 26.4022 7.99809 25.6282C7.67749 24.8542 7.20759 24.151 6.6152 23.5586C6.02282 22.9662 5.31955 22.4963 4.54556 22.1757C3.77157 21.8551 2.94202 21.6901 2.10426 21.6901C1.76587 21.6901 1.44134 21.8245 1.20207 22.0638C0.962793 22.3031 0.828369 22.6276 0.828369 22.966C0.828369 23.3044 0.962793 23.6289 1.20207 23.8682C1.44134 24.1074 1.76587 24.2419 2.10426 24.2419C3.11942 24.2419 4.093 24.6451 4.81082 25.363C5.52865 26.0808 5.93192 27.0544 5.93192 28.0695C5.93192 29.7615 6.60404 31.3841 7.80041 32.5805C8.99679 33.7768 10.6194 34.449 12.3114 34.449H16.139V37.0007C16.139 37.3391 16.2734 37.6637 16.5127 37.9029C16.752 38.1422 17.0765 38.2766 17.4149 38.2766C17.7533 38.2766 18.0778 38.1422 18.3171 37.9029C18.5564 37.6637 18.6908 37.3391 18.6908 37.0007V30.6213C18.6908 29.6061 19.0941 28.6326 19.8119 27.9147C20.5297 27.1969 21.5033 26.7936 22.5185 26.7936C23.5336 26.7936 24.5072 27.1969 25.225 27.9147C25.9429 28.6326 26.3461 29.6061 26.3461 30.6213V37.0007C26.3461 37.3391 26.4805 37.6637 26.7198 37.9029C26.9591 38.1422 27.2836 38.2766 27.622 38.2766C27.9604 38.2766 28.2849 38.1422 28.5242 37.9029C28.7635 37.6637 28.8979 37.3391 28.8979 37.0007V30.6213C28.8987 29.2035 28.4248 27.8262 27.5518 26.7091C29.6906 26.4157 31.651 25.3583 33.071 23.7322C34.491 22.1062 35.2747 20.0212 35.2773 17.8624V16.5865C35.2614 15.0009 34.8392 13.4458 34.0509 12.0699ZM32.7256 17.8624C32.7256 19.5544 32.0534 21.177 30.8571 22.3734C29.6607 23.5697 28.0381 24.2419 26.3461 24.2419H18.6908C16.9989 24.2419 15.3762 23.5697 14.1799 22.3734C12.9835 21.177 12.3114 19.5544 12.3114 17.8624V16.5865C12.327 15.3107 12.709 14.0662 13.4118 13.0013C13.5428 12.8286 13.6277 12.6254 13.6584 12.4108C13.6891 12.1962 13.6646 11.9773 13.5872 11.7748C13.2549 10.9178 13.095 10.0035 13.1166 9.08452C13.1382 8.16552 13.341 7.25981 13.7132 6.4193C14.7574 6.53163 15.7629 6.87753 16.6552 7.43136C17.5475 7.98518 18.3038 8.73273 18.8678 9.61859C18.9828 9.79834 19.141 9.94639 19.3279 10.0492C19.5149 10.152 19.7246 10.2063 19.938 10.2071H25.0973C25.3115 10.2071 25.5222 10.1532 25.7101 10.0504C25.898 9.9475 26.0569 9.79902 26.1723 9.61859C26.7363 8.73265 27.4925 7.98504 28.3848 7.43121C29.2771 6.87737 30.2827 6.53152 31.3269 6.4193C31.6986 7.26002 31.9008 8.16583 31.9219 9.08484C31.943 10.0038 31.7825 10.918 31.4497 11.7748C31.3726 11.9754 31.3468 12.192 31.3746 12.4051C31.4025 12.6182 31.4831 12.8209 31.6092 12.9949C32.319 14.0598 32.7066 15.3069 32.7256 16.5865V17.8624Z" fill="#B9B8B8"/>
</g>
<defs>
<clipPath id="clip0_1227_36">
<rect width="40.8284" height="40.8284" fill="white" transform="translate(0.828369)"/>
</clipPath>
</defs>
</svg>
