<svg width="35" height="35" viewBox="0 0 35 35" fill="none" xmlns="http://www.w3.org/2000/svg">
<path d="M27.3438 10.9375H25.1562V8.74996C25.1553 7.86173 24.8839 6.99484 24.3783 6.26454C23.8727 5.53425 23.1568 4.97515 22.3257 4.66158C21.4947 4.348 20.5879 4.29482 19.7259 4.50908C18.8639 4.72335 18.0875 5.19492 17.5 5.8611C16.9401 5.22648 16.2081 4.76788 15.3928 4.54088C14.5775 4.31389 13.7138 4.32824 12.9065 4.5822C12.0992 4.83616 11.3829 5.31882 10.8444 5.9717C10.3058 6.62457 9.96823 7.41963 9.87246 8.26051C9.20799 7.87012 8.45218 7.66217 7.68153 7.65772C6.91087 7.65327 6.15272 7.85247 5.48378 8.23515C4.81484 8.61784 4.25885 9.17044 3.87209 9.83703C3.48532 10.5036 3.2815 11.2605 3.28125 12.0312V17.5C3.28125 21.271 4.77929 24.8876 7.44583 27.5541C10.1124 30.2207 13.729 31.7187 17.5 31.7187C21.271 31.7187 24.8876 30.2207 27.5542 27.5541C30.2207 24.8876 31.7188 21.271 31.7188 17.5V15.3125C31.7188 14.1521 31.2578 13.0393 30.4373 12.2189C29.6169 11.3984 28.5041 10.9375 27.3438 10.9375ZM20.7812 6.56246C21.3614 6.56246 21.9178 6.79293 22.328 7.20317C22.7383 7.6134 22.9688 8.1698 22.9688 8.74996V10.9375H18.5938V8.74996C18.5938 8.1698 18.8242 7.6134 19.2345 7.20317C19.6447 6.79293 20.2011 6.56246 20.7812 6.56246ZM12.0312 8.74996C12.0312 8.1698 12.2617 7.6134 12.672 7.20317C13.0822 6.79293 13.6386 6.56246 14.2188 6.56246C14.7989 6.56246 15.3553 6.79293 15.7655 7.20317C16.1758 7.6134 16.4062 8.1698 16.4062 8.74996V14.2187C16.4062 14.7989 16.1758 15.3553 15.7655 15.7655C15.3553 16.1757 14.7989 16.4062 14.2188 16.4062C13.6386 16.4062 13.0822 16.1757 12.672 15.7655C12.2617 15.3553 12.0312 14.7989 12.0312 14.2187V8.74996ZM5.46875 12.0312C5.46875 11.4511 5.69922 10.8947 6.10945 10.4844C6.51969 10.0742 7.07609 9.84371 7.65625 9.84371C8.23641 9.84371 8.79281 10.0742 9.20305 10.4844C9.61328 10.8947 9.84375 11.4511 9.84375 12.0312V14.2187C9.84375 14.7989 9.61328 15.3553 9.20305 15.7655C8.79281 16.1757 8.23641 16.4062 7.65625 16.4062C7.07609 16.4062 6.51969 16.1757 6.10945 15.7655C5.69922 15.3553 5.46875 14.7989 5.46875 14.2187V12.0312ZM29.5312 17.5C29.5312 20.6464 28.2985 23.6676 26.0975 25.9161C23.8964 28.1645 20.9021 29.4612 17.7564 29.5283C14.6107 29.5953 11.5638 28.4274 9.26898 26.2748C6.97411 24.1222 5.61382 21.1562 5.47969 18.0127C6.35394 18.5155 7.37533 18.7001 8.37027 18.5351C9.36522 18.3701 10.2723 17.8657 10.9375 17.1076C11.6913 17.9665 12.7519 18.4956 13.8914 18.5812C15.031 18.6668 16.1587 18.3022 17.0324 17.5656C17.4259 18.2177 17.9817 18.7566 18.6457 19.1297C17.942 19.7444 17.378 20.5027 16.9918 21.3535C16.6055 22.2044 16.4058 23.128 16.4062 24.0625C16.4062 24.3525 16.5215 24.6307 16.7266 24.8359C16.9317 25.041 17.2099 25.1562 17.5 25.1562C17.7901 25.1562 18.0683 25.041 18.2734 24.8359C18.4785 24.6307 18.5938 24.3525 18.5938 24.0625C18.5938 22.9021 19.0547 21.7893 19.8752 20.9689C20.6956 20.1484 21.8084 19.6875 22.9688 19.6875C23.2588 19.6875 23.537 19.5722 23.7421 19.3671C23.9473 19.162 24.0625 18.8838 24.0625 18.5937C24.0625 18.3036 23.9473 18.0254 23.7421 17.8203C23.537 17.6152 23.2588 17.5 22.9688 17.5H20.7812C20.2011 17.5 19.6447 17.2695 19.2345 16.8593C18.8242 16.449 18.5938 15.8926 18.5938 15.3125V13.125H27.3438C27.9239 13.125 28.4803 13.3554 28.8905 13.7657C29.3008 14.1759 29.5312 14.7323 29.5312 15.3125V17.5Z" fill="#F4F4F4"/>
</svg>
