<svg width="41" height="41" viewBox="0 0 41 41" fill="none" xmlns="http://www.w3.org/2000/svg">
<path d="M20.4142 12.7589C18.9001 12.7589 17.42 13.2078 16.1611 14.049C14.9022 14.8902 13.921 16.0858 13.3416 17.4846C12.7622 18.8834 12.6106 20.4227 12.9059 21.9077C13.2013 23.3926 13.9304 24.7567 15.001 25.8273C16.0717 26.8979 17.4357 27.627 18.9207 27.9224C20.4057 28.2178 21.9449 28.0662 23.3437 27.4868C24.7426 26.9074 25.9382 25.9262 26.7793 24.6672C27.6205 23.4083 28.0695 21.9283 28.0695 20.4142C28.0674 18.3845 27.2602 16.4386 25.825 15.0034C24.3898 13.5682 22.4438 12.761 20.4142 12.7589ZM20.4142 25.5177C19.4048 25.5177 18.4181 25.2184 17.5788 24.6576C16.7395 24.0968 16.0854 23.2998 15.6991 22.3672C15.3128 21.4347 15.2118 20.4085 15.4087 19.4185C15.6056 18.4285 16.0917 17.5192 16.8054 16.8054C17.5192 16.0917 18.4285 15.6056 19.4185 15.4087C20.4085 15.2118 21.4347 15.3128 22.3672 15.6991C23.2998 16.0854 24.0968 16.7395 24.6576 17.5788C25.2184 18.4181 25.5177 19.4048 25.5177 20.4142C25.5177 21.7677 24.98 23.0658 24.0229 24.0229C23.0658 24.98 21.7677 25.5177 20.4142 25.5177ZM28.0695 3.82764H12.7589C10.3909 3.83017 8.12071 4.77195 6.44633 6.44633C4.77195 8.12071 3.83017 10.3909 3.82764 12.7589V28.0695C3.83017 30.4374 4.77195 32.7076 6.44633 34.382C8.12071 36.0564 10.3909 36.9982 12.7589 37.0007H28.0695C30.4374 36.9982 32.7076 36.0564 34.382 34.382C36.0564 32.7076 36.9982 30.4374 37.0007 28.0695V12.7589C36.9982 10.3909 36.0564 8.12071 34.382 6.44633C32.7076 4.77195 30.4374 3.83017 28.0695 3.82764ZM34.4489 28.0695C34.4489 29.7614 33.7768 31.3841 32.5804 32.5804C31.3841 33.7768 29.7614 34.4489 28.0695 34.4489H12.7589C11.0669 34.4489 9.44428 33.7768 8.24791 32.5804C7.05153 31.3841 6.37941 29.7614 6.37941 28.0695V12.7589C6.37941 11.0669 7.05153 9.44428 8.24791 8.24791C9.44428 7.05153 11.0669 6.37941 12.7589 6.37941H28.0695C29.7614 6.37941 31.3841 7.05153 32.5804 8.24791C33.7768 9.44428 34.4489 11.0669 34.4489 12.7589V28.0695ZM30.6213 12.1209C30.6213 12.4994 30.509 12.8694 30.2987 13.1842C30.0884 13.4989 29.7895 13.7442 29.4398 13.8891C29.0901 14.0339 28.7053 14.0718 28.3341 13.998C27.9628 13.9241 27.6218 13.7418 27.3542 13.4742C27.0865 13.2065 26.9042 12.8655 26.8304 12.4943C26.7565 12.123 26.7944 11.7382 26.9393 11.3885C27.0842 11.0388 27.3295 10.7399 27.6442 10.5296C27.9589 10.3193 28.3289 10.2071 28.7074 10.2071C29.215 10.2071 29.7018 10.4087 30.0607 10.7676C30.4196 11.1265 30.6213 11.6133 30.6213 12.1209Z" fill="#B9B8B8"/>
</svg>
