<svg width="46" height="46" viewBox="0 0 46 46" fill="none" xmlns="http://www.w3.org/2000/svg">
<path d="M0 0V46H46V0H0ZM25.033 35.8759C25.033 40.3527 22.4045 42.396 18.5746 42.396C15.1143 42.396 13.1121 40.6094 12.0853 38.4429L15.6071 36.3174C16.2848 37.5188 16.9009 38.5353 18.3897 38.5353C19.8067 38.5353 20.7103 37.9808 20.7103 35.8143V21.121H25.033V35.8759ZM35.2598 42.396C31.2451 42.396 28.6473 40.4862 27.3844 37.9808L30.9062 35.9478C31.8304 37.4571 33.042 38.5763 35.1674 38.5763C36.954 38.5763 38.104 37.683 38.104 36.4406C38.104 34.9621 36.9335 34.4384 34.9518 33.5656L33.8737 33.1036C30.7522 31.779 28.6884 30.1054 28.6884 26.5835C28.6884 23.3388 31.1629 20.8746 35.0134 20.8746C37.7652 20.8746 39.7366 21.8295 41.1536 24.3348L37.7857 26.4911C37.0464 25.1665 36.2455 24.6429 35.0031 24.6429C33.7402 24.6429 32.9393 25.4438 32.9393 26.4911C32.9393 27.7848 33.7402 28.3085 35.5987 29.1196L36.6768 29.5817C40.3527 31.1527 42.4165 32.7647 42.4165 36.379C42.4165 40.2603 39.3567 42.396 35.2598 42.396Z" fill="#F4F4F4"/>
</svg>
