<svg width="42" height="41" viewBox="0 0 42 41" fill="none" xmlns="http://www.w3.org/2000/svg">
<path d="M35.1057 3.82764H7.03615C6.35938 3.82764 5.71032 4.09648 5.23177 4.57503C4.75322 5.05358 4.48438 5.70264 4.48438 6.37941V34.4489C4.48438 35.1257 4.75322 35.7748 5.23177 36.2533C5.71032 36.7319 6.35938 37.0007 7.03615 37.0007H35.1057C35.7824 37.0007 36.4315 36.7319 36.9101 36.2533C37.3886 35.7748 37.6575 35.1257 37.6575 34.4489V6.37941C37.6575 5.70264 37.3886 5.05358 36.9101 4.57503C36.4315 4.09648 35.7824 3.82764 35.1057 3.82764ZM35.1057 34.4489H7.03615V6.37941H35.1057V34.4489ZM15.9674 17.8624V28.0695C15.9674 28.4079 15.8329 28.7324 15.5937 28.9717C15.3544 29.211 15.0299 29.3454 14.6915 29.3454C14.3531 29.3454 14.0286 29.211 13.7893 28.9717C13.55 28.7324 13.4156 28.4079 13.4156 28.0695V17.8624C13.4156 17.524 13.55 17.1995 13.7893 16.9602C14.0286 16.7209 14.3531 16.5865 14.6915 16.5865C15.0299 16.5865 15.3544 16.7209 15.5937 16.9602C15.8329 17.1995 15.9674 17.524 15.9674 17.8624ZM30.0021 22.328V28.0695C30.0021 28.4079 29.8677 28.7324 29.6284 28.9717C29.3892 29.211 29.0646 29.3454 28.7262 29.3454C28.3879 29.3454 28.0633 29.211 27.824 28.9717C27.5848 28.7324 27.4504 28.4079 27.4504 28.0695V22.328C27.4504 21.482 27.1143 20.6707 26.5161 20.0725C25.9179 19.4743 25.1066 19.1383 24.2606 19.1383C23.4147 19.1383 22.6033 19.4743 22.0052 20.0725C21.407 20.6707 21.0709 21.482 21.0709 22.328V28.0695C21.0709 28.4079 20.9365 28.7324 20.6972 28.9717C20.4579 29.211 20.1334 29.3454 19.795 29.3454C19.4566 29.3454 19.1321 29.211 18.8928 28.9717C18.6536 28.7324 18.5191 28.4079 18.5191 28.0695V17.8624C18.5207 17.5499 18.637 17.2488 18.8458 17.0163C19.0546 16.7838 19.3415 16.636 19.6521 16.601C19.9626 16.566 20.2752 16.6462 20.5306 16.8264C20.786 17.0066 20.9663 17.2742 21.0374 17.5785C21.9005 16.993 22.9068 16.6537 23.9483 16.5969C24.9897 16.5402 26.0269 16.7682 26.9485 17.2565C27.8702 17.7447 28.6414 18.4748 29.1794 19.3683C29.7173 20.2618 30.0018 21.285 30.0021 22.328ZM16.6053 13.3968C16.6053 13.7753 16.4931 14.1453 16.2828 14.4601C16.0725 14.7748 15.7736 15.0201 15.4239 15.1649C15.0742 15.3098 14.6894 15.3477 14.3181 15.2739C13.9469 15.2 13.6058 15.0177 13.3382 14.7501C13.0705 14.4824 12.8883 14.1414 12.8144 13.7702C12.7406 13.3989 12.7785 13.0141 12.9233 12.6644C13.0682 12.3147 13.3135 12.0158 13.6282 11.8055C13.9429 11.5952 14.313 11.483 14.6915 11.483C15.1991 11.483 15.6858 11.6846 16.0448 12.0435C16.4037 12.4024 16.6053 12.8892 16.6053 13.3968Z" fill="#B9B8B8"/>
</svg>
