<svg width="52" height="41" viewBox="0 0 52 41" fill="none" xmlns="http://www.w3.org/2000/svg">
<path d="M4.25038 29.9189C4.44199 30.0798 4.59639 30.282 4.70252 30.5111C4.9738 31.0824 4.9738 31.7808 4.9738 32.4584C4.9738 33.8613 5.03033 34.5361 6.33021 34.5361C6.45013 34.5361 6.56513 34.5847 6.64992 34.6713C6.73472 34.7578 6.78235 34.8753 6.78235 34.9977C6.78235 35.1202 6.73472 35.2376 6.64992 35.3243C6.56513 35.4108 6.45013 35.4595 6.33021 35.4595C5.34229 35.4595 4.67313 35.1051 4.34082 34.4056C4.06953 33.8342 4.06953 33.1359 4.06953 32.4584C4.06953 31.0553 4.01301 30.3807 2.71313 30.3807C2.59321 30.3807 2.47821 30.332 2.39342 30.2454C2.30862 30.1588 2.26099 30.0414 2.26099 29.9189C2.26099 29.7965 2.30862 29.679 2.39342 29.5925C2.47821 29.5058 2.59321 29.4572 2.71313 29.4572C4.01301 29.4572 4.06953 28.7826 4.06953 27.3795C4.06953 26.7031 4.06953 26.0036 4.34082 25.4322C4.67426 24.7328 5.34342 24.3784 6.33134 24.3784C6.45126 24.3784 6.56626 24.427 6.65105 24.5136C6.73585 24.6002 6.78348 24.7177 6.78348 24.8401C6.78348 24.9626 6.73585 25.08 6.65105 25.1666C6.56626 25.2531 6.45126 25.3018 6.33134 25.3018C5.03146 25.3018 4.97493 25.9765 4.97493 27.3795C4.97493 28.0559 4.97493 28.7554 4.70365 29.3267C4.59719 29.5559 4.44241 29.7581 4.25038 29.9189ZM15.374 29.4572C14.0741 29.4572 14.0176 28.7826 14.0176 27.3795C14.0176 26.7031 14.0176 26.0036 13.7464 25.4322C13.4141 24.7328 12.7449 24.3784 11.757 24.3784C11.637 24.3784 11.5221 24.427 11.4373 24.5136C11.3525 24.6002 11.3048 24.7177 11.3048 24.8401C11.3048 24.9626 11.3525 25.08 11.4373 25.1666C11.5221 25.2531 11.637 25.3018 11.757 25.3018C13.0569 25.3018 13.1134 25.9765 13.1134 27.3795C13.1134 28.0559 13.1134 28.7554 13.3847 29.3267C13.4908 29.5558 13.6451 29.758 13.8368 29.9189C13.6451 30.0798 13.4908 30.282 13.3847 30.5111C13.1134 31.0824 13.1134 31.7808 13.1134 32.4584C13.1134 33.8613 13.0569 34.5361 11.757 34.5361C11.637 34.5361 11.5221 34.5847 11.4373 34.6713C11.3525 34.7578 11.3048 34.8753 11.3048 34.9977C11.3048 35.1202 11.3525 35.2376 11.4373 35.3243C11.5221 35.4108 11.637 35.4595 11.757 35.4595C12.7449 35.4595 13.4141 35.1051 13.7464 34.4056C14.0176 33.8342 14.0176 33.1359 14.0176 32.4584C14.0176 31.0553 14.0741 30.3807 15.374 30.3807C15.494 30.3807 15.6089 30.332 15.6938 30.2454C15.7786 30.1588 15.8262 30.0414 15.8262 29.9189C15.8262 29.7965 15.7786 29.679 15.6938 29.5925C15.6089 29.5058 15.494 29.4572 15.374 29.4572Z" fill="#F4F4F4"/>
<path d="M21.7326 35.6257C20.8057 35.6257 20.1161 35.3154 19.6639 34.6949C19.2118 34.0743 19.0705 33.2377 19.24 32.185L19.647 29.6086C19.76 28.8884 19.9861 28.2734 20.3252 27.7636C20.6644 27.2539 21.0826 26.8605 21.58 26.5835C22.0887 26.2954 22.6539 26.1514 23.2757 26.1514C24.0444 26.1514 24.6209 26.3619 25.0052 26.783C25.4009 27.193 25.5365 27.7581 25.4122 28.4784L25.09 28.0628H25.497L25.8022 25.9353L26.2431 23.3257H28.0574L26.0905 35.4595H24.2931L24.5813 33.7142H24.1913L24.6492 33.2986C24.5248 34.0189 24.197 34.5896 23.6657 35.0107C23.1457 35.4207 22.5013 35.6257 21.7326 35.6257ZM22.6313 34.0632C23.2078 34.0632 23.6883 33.8915 24.0726 33.548C24.4683 33.1934 24.717 32.7058 24.8187 32.0853L25.1918 29.6918C25.3048 29.0712 25.22 28.5892 24.9374 28.2457C24.6661 27.8911 24.2365 27.7138 23.6487 27.7138C23.0496 27.7138 22.5635 27.8855 22.1905 28.2291C21.8174 28.5615 21.5744 29.0491 21.4613 29.6918L21.0883 32.0853C20.9752 32.728 21.0544 33.2211 21.3257 33.5646C21.597 33.897 22.0322 34.0632 22.6313 34.0632ZM31.2047 35.6257C30.4473 35.6257 29.8142 35.4816 29.3055 35.1935C28.7968 34.8943 28.4294 34.4788 28.2034 33.9469C27.9886 33.415 27.9377 32.7945 28.0507 32.0853L28.4238 29.6918C28.5481 28.9715 28.8081 28.3509 29.2038 27.8301C29.5994 27.2982 30.0968 26.8882 30.696 26.6001C31.3064 26.3009 31.9903 26.1514 32.7477 26.1514C33.5164 26.1514 34.1551 26.3009 34.6638 26.6001C35.1725 26.8882 35.5342 27.2982 35.749 27.8301C35.9751 28.3509 36.026 28.9715 35.9016 29.6918L35.6473 31.3207H29.9329L29.8142 32.0853C29.7125 32.7612 29.7973 33.2765 30.0686 33.6311C30.3399 33.9857 30.8034 34.163 31.459 34.163C31.9903 34.163 32.4255 34.0743 32.7647 33.897C33.1151 33.7086 33.3581 33.4372 33.4938 33.0826H35.3081C35.1386 33.6034 34.856 34.0522 34.4603 34.4289C34.076 34.8057 33.6012 35.0993 33.036 35.3099C32.482 35.5204 31.8716 35.6257 31.2047 35.6257ZM34.0534 30.2403L34.1381 29.6751C34.2512 29.0103 34.172 28.495 33.9007 28.1293C33.6407 27.7636 33.1829 27.5808 32.5273 27.5808C31.8716 27.5808 31.346 27.7636 30.9503 28.1293C30.566 28.495 30.3173 29.0158 30.2042 29.6918L30.1364 30.1073L34.206 30.0907L34.0534 30.2403ZM38.8455 35.4595L37.2855 26.3176H39.1168L40.0324 32.1684C40.089 32.5119 40.1398 32.8609 40.1851 33.2155C40.2303 33.5591 40.2585 33.8305 40.2698 34.03C40.3603 33.8305 40.479 33.5591 40.6259 33.2155C40.7729 32.8609 40.9311 32.5119 41.1007 32.1684L43.8477 26.3176H45.7638L41.2533 35.4595H38.8455Z" fill="#F4F4F4"/>
<path d="M46.5739 35.6146C46.1836 35.6146 45.8723 35.506 45.6402 35.2888C45.4186 35.0613 45.3079 34.7613 45.3079 34.389C45.3079 33.996 45.4186 33.6857 45.6402 33.4582C45.8723 33.2307 46.1836 33.1169 46.5739 33.1169C46.9643 33.1169 47.2703 33.2307 47.4919 33.4582C47.7239 33.6857 47.84 33.996 47.84 34.389C47.84 34.7613 47.7239 35.0613 47.4919 35.2888C47.2703 35.506 46.9643 35.6146 46.5739 35.6146Z" fill="#04969D"/>
<path d="M3.71 19V5.86H6.41V16.48H11.72V19H3.71ZM19.453 19.18C18.121 19.18 17.077 18.82 16.321 18.1C15.577 17.38 15.205 16.396 15.205 15.148V9.1H17.905V15.13C17.905 15.682 18.037 16.108 18.301 16.408C18.565 16.696 18.949 16.84 19.453 16.84C19.945 16.84 20.323 16.696 20.587 16.408C20.863 16.108 21.001 15.682 21.001 15.13V9.1H23.701V15.148C23.701 16.408 23.323 17.398 22.567 18.118C21.811 18.826 20.773 19.18 19.453 19.18ZM27.3659 19V16.552H30.7859V11.53H27.8159V9.1H33.3059V16.552H36.1859V19H27.3659ZM31.8659 7.534C31.3739 7.534 30.9779 7.408 30.6779 7.156C30.3899 6.904 30.2459 6.562 30.2459 6.13C30.2459 5.698 30.3899 5.356 30.6779 5.104C30.9779 4.852 31.3739 4.726 31.8659 4.726C32.3579 4.726 32.7479 4.852 33.0359 5.104C33.3359 5.356 33.4859 5.698 33.4859 6.13C33.4859 6.562 33.3359 6.904 33.0359 7.156C32.7479 7.408 32.3579 7.534 31.8659 7.534ZM39.4189 19V16.66L44.3149 11.44H39.5989V9.1H47.5009V11.44L42.6049 16.66H47.6989V19H39.4189Z" fill="#F4F4F4"/>
</svg>
