<svg width="35" height="35" viewBox="0 0 35 35" fill="none" xmlns="http://www.w3.org/2000/svg">
<path d="M33.4687 20.5625C33.3538 20.6487 33.223 20.7114 33.0839 20.7471C32.9447 20.7827 32.7999 20.7906 32.6577 20.7703C32.5156 20.75 32.3788 20.7019 32.2552 20.6287C32.1316 20.5555 32.0236 20.4587 31.9374 20.3438C31.2782 19.4577 30.4201 18.7387 29.4322 18.2448C28.4444 17.7508 27.3544 17.4958 26.2499 17.5C26.0348 17.5 25.8245 17.4366 25.6453 17.3177C25.4661 17.1988 25.3259 17.0296 25.2423 16.8315C25.1855 16.6969 25.1563 16.5523 25.1563 16.4063C25.1563 16.2602 25.1855 16.1157 25.2423 15.9811C25.3259 15.7829 25.4661 15.6138 25.6453 15.4949C25.8245 15.376 26.0348 15.3126 26.2499 15.3125C26.8636 15.3125 27.465 15.1403 27.9858 14.8156C28.5065 14.4909 28.9258 14.0267 29.1959 13.4756C29.466 12.9246 29.5762 12.3089 29.514 11.6983C29.4517 11.0878 29.2194 10.507 28.8436 10.0218C28.4678 9.53668 27.9634 9.16665 27.3878 8.95377C26.8123 8.7409 26.1885 8.6937 25.5874 8.81756C24.9864 8.94141 24.4321 9.23134 23.9875 9.65442C23.543 10.0775 23.226 10.6168 23.0726 11.211C23.0367 11.3501 22.9737 11.4808 22.8873 11.5956C22.8009 11.7105 22.6927 11.8071 22.5689 11.8801C22.4451 11.9531 22.3082 12.001 22.1659 12.0211C22.0236 12.0412 21.8787 12.033 21.7396 11.9971C21.6004 11.9612 21.4697 11.8982 21.3549 11.8118C21.2401 11.7254 21.1434 11.6172 21.0704 11.4934C20.9974 11.3696 20.9495 11.2327 20.9295 11.0904C20.9094 10.9481 20.9175 10.8032 20.9534 10.6641C21.1664 9.84012 21.5687 9.07721 22.1284 8.43607C22.6881 7.79493 23.3897 7.29326 24.1773 6.97099C24.965 6.64871 25.817 6.51472 26.6656 6.57967C27.5142 6.64463 28.3359 6.90673 29.0653 7.34513C29.7948 7.78354 30.4119 8.38614 30.8674 9.10499C31.323 9.82384 31.6045 10.6391 31.6896 11.4859C31.7747 12.3327 31.6609 13.1876 31.3574 13.9827C31.0539 14.7778 30.569 15.4911 29.9413 16.0659C31.4286 16.7098 32.7214 17.7317 33.6915 19.0299C33.7777 19.1451 33.8403 19.2762 33.8758 19.4156C33.9112 19.555 33.9188 19.7001 33.8981 19.8425C33.8774 19.9848 33.8288 20.1217 33.7551 20.2453C33.6814 20.3688 33.5841 20.4767 33.4687 20.5625ZM26.1023 28.9844C26.1814 29.1089 26.2345 29.2481 26.2585 29.3937C26.2824 29.5392 26.2767 29.6881 26.2416 29.8314C26.2065 29.9747 26.1428 30.1094 26.0543 30.2274C25.9658 30.3454 25.8543 30.4443 25.7266 30.5181C25.5989 30.5919 25.4576 30.6392 25.3111 30.657C25.1647 30.6747 25.0162 30.6627 24.8745 30.6216C24.7328 30.5805 24.6009 30.5112 24.4867 30.4178C24.3726 30.3244 24.2785 30.2089 24.2101 30.0782C23.5211 28.9115 22.5398 27.9446 21.3631 27.273C20.1864 26.6013 18.8549 26.248 17.4999 26.248C16.145 26.248 14.8135 26.6013 13.6368 27.273C12.46 27.9446 11.4788 28.9115 10.7898 30.0782C10.7214 30.2089 10.6273 30.3244 10.5131 30.4178C10.3989 30.5112 10.267 30.5805 10.1254 30.6216C9.98369 30.6627 9.83516 30.6747 9.68873 30.657C9.54229 30.6392 9.40097 30.5919 9.27325 30.5181C9.14554 30.4443 9.03408 30.3454 8.94558 30.2274C8.85708 30.1094 8.79337 29.9747 8.75827 29.8314C8.72318 29.6881 8.71743 29.5392 8.74137 29.3937C8.76531 29.2481 8.81845 29.1089 8.89758 28.9844C9.95797 27.1625 11.5748 25.7287 13.5105 24.8938C12.4213 24.0599 11.6208 22.9056 11.2215 21.5932C10.8223 20.2808 10.8443 18.8762 11.2846 17.577C11.7248 16.2778 12.5612 15.1492 13.676 14.3499C14.7908 13.5505 16.1281 13.1207 17.4999 13.1207C18.8717 13.1207 20.209 13.5505 21.3239 14.3499C22.4387 15.1492 23.275 16.2778 23.7153 17.577C24.1555 18.8762 24.1776 20.2808 23.7783 21.5932C23.3791 22.9056 22.5786 24.0599 21.4894 24.8938C23.4251 25.7287 25.0419 27.1625 26.1023 28.9844ZM17.4999 24.0625C18.3652 24.0625 19.2111 23.806 19.9305 23.3252C20.65 22.8445 21.2108 22.1612 21.5419 21.3618C21.873 20.5624 21.9597 19.6827 21.7909 18.834C21.6221 17.9854 21.2054 17.2058 20.5935 16.5939C19.9817 15.9821 19.2021 15.5654 18.3534 15.3966C17.5048 15.2278 16.6251 15.3144 15.8257 15.6456C15.0263 15.9767 14.343 16.5375 13.8622 17.2569C13.3815 17.9764 13.1249 18.8222 13.1249 19.6875C13.1249 20.8479 13.5859 21.9607 14.4063 22.7811C15.2268 23.6016 16.3396 24.0625 17.4999 24.0625ZM9.84368 16.4063C9.84368 16.1162 9.72844 15.838 9.52332 15.6329C9.31821 15.4278 9.04001 15.3125 8.74993 15.3125C8.13623 15.3125 7.53486 15.1403 7.0141 14.8156C6.49335 14.4909 6.07409 14.0267 5.80395 13.4756C5.53382 12.9246 5.42363 12.3089 5.4859 11.6983C5.54817 11.0878 5.78042 10.507 6.15625 10.0218C6.53207 9.53668 7.03643 9.16665 7.61202 8.95377C8.1876 8.7409 8.81136 8.6937 9.41242 8.81756C10.0135 8.94141 10.5678 9.23134 11.0123 9.65442C11.4569 10.0775 11.7738 10.6168 11.9273 11.211C11.9998 11.492 12.181 11.7327 12.431 11.8801C12.6809 12.0275 12.9793 12.0696 13.2603 11.9971C13.5413 11.9246 13.782 11.7434 13.9294 11.4934C14.0768 11.2434 14.1189 10.9451 14.0464 10.6641C13.8335 9.84012 13.4311 9.07721 12.8715 8.43607C12.3118 7.79493 11.6102 7.29326 10.8225 6.97099C10.0348 6.64871 9.18282 6.51472 8.33424 6.57967C7.48567 6.64463 6.66397 6.90673 5.93451 7.34513C5.20506 7.78354 4.588 8.38614 4.13242 9.10499C3.67684 9.82384 3.39532 10.6391 3.31025 11.4859C3.22519 12.3327 3.33894 13.1876 3.64245 13.9827C3.94595 14.7778 4.43084 15.4911 5.05852 16.0659C3.57277 16.7104 2.28137 17.7322 1.31243 19.0299C1.1382 19.262 1.06329 19.5538 1.10419 19.8411C1.14508 20.1283 1.29843 20.3876 1.53049 20.5619C1.76256 20.7361 2.05433 20.811 2.34162 20.7701C2.62892 20.7292 2.8882 20.5759 3.06243 20.3438C3.72167 19.4577 4.57975 18.7387 5.5676 18.2448C6.55546 17.7508 7.64548 17.4958 8.74993 17.5C9.04001 17.5 9.31821 17.3848 9.52332 17.1797C9.72844 16.9746 9.84368 16.6964 9.84368 16.4063Z" fill="#F4F4F4"/>
</svg>
