<svg width="35" height="35" viewBox="0 0 35 35" fill="none" xmlns="http://www.w3.org/2000/svg">
<path d="M30.1151 21.6754C29.9591 21.577 29.7809 21.5196 29.5968 21.5087C29.4128 21.4977 29.2289 21.5334 29.0624 21.6125C28.6456 21.8096 28.1858 21.8981 27.7256 21.8698C27.2654 21.8415 26.8199 21.6974 26.4304 21.4507C26.0409 21.2041 25.7201 20.8629 25.4978 20.459C25.2755 20.0552 25.1589 19.6016 25.1589 19.1406C25.1589 18.6796 25.2755 18.226 25.4978 17.8221C25.7201 17.4182 26.0409 17.0771 26.4304 16.8305C26.8199 16.5838 27.2654 16.4396 27.7256 16.4114C28.1858 16.3831 28.6456 16.4716 29.0624 16.6687C29.2291 16.7478 29.4131 16.7835 29.5974 16.7724C29.7816 16.7612 29.96 16.7036 30.116 16.6049C30.272 16.5063 30.4004 16.3698 30.4895 16.2081C30.5785 16.0464 30.6251 15.8648 30.625 15.6802V9.84372C30.625 9.26356 30.3946 8.70716 29.9843 8.29692C29.5741 7.88669 29.0177 7.65622 28.4375 7.65622H23.4856C23.5059 7.47464 23.516 7.29206 23.5157 7.10934C23.5147 6.43713 23.3764 5.7722 23.1093 5.15532C22.8423 4.53843 22.452 3.98258 21.9625 3.52184C21.2848 2.8853 20.4406 2.45375 19.5277 2.27718C18.6148 2.10061 17.6706 2.18624 16.8043 2.52415C15.9381 2.86206 15.1853 3.43843 14.6331 4.18652C14.0809 4.9346 13.7519 5.8238 13.6842 6.75114C13.6632 7.05279 13.6696 7.35573 13.7034 7.65622H8.75005C8.16989 7.65622 7.61349 7.88669 7.20325 8.29692C6.79302 8.70716 6.56255 9.26356 6.56255 9.84372V14.2488C6.38097 14.2284 6.19839 14.2184 6.01567 14.2187C5.34347 14.2198 4.67857 14.3581 4.06169 14.6252C3.44482 14.8922 2.88896 15.2824 2.42817 15.7718C1.96408 16.2621 1.60672 16.8432 1.37869 17.4786C1.15066 18.114 1.05691 18.7898 1.10337 19.4632C1.18175 20.6491 1.68562 21.7668 2.52233 22.6108C3.35904 23.4548 4.47233 23.9683 5.65747 24.057C5.95911 24.0787 6.2621 24.0723 6.56255 24.0379V28.4375C6.56255 29.0176 6.79302 29.574 7.20325 29.9843C7.61349 30.3945 8.16989 30.625 8.75005 30.625H28.4375C29.0177 30.625 29.5741 30.3945 29.9843 29.9843C30.3946 29.574 30.625 29.0176 30.625 28.4375V22.6009C30.6252 22.4161 30.5784 22.2343 30.4893 22.0725C30.4001 21.9106 30.2714 21.774 30.1151 21.6754ZM28.4375 28.4375H8.75005V22.6009C8.75011 22.4164 8.70346 22.2348 8.61446 22.0731C8.52545 21.9114 8.39697 21.7749 8.24099 21.6762C8.08501 21.5776 7.9066 21.52 7.72237 21.5088C7.53815 21.4977 7.35409 21.5333 7.18735 21.6125C6.77059 21.8096 6.31075 21.8981 5.85059 21.8698C5.39044 21.8415 4.9449 21.6974 4.55541 21.4507C4.16591 21.2041 3.8451 20.8629 3.62281 20.459C3.40051 20.0552 3.28394 19.6016 3.28394 19.1406C3.28394 18.6796 3.40051 18.226 3.62281 17.8221C3.8451 17.4182 4.16591 17.0771 4.55541 16.8305C4.9449 16.5838 5.39044 16.4396 5.85059 16.4114C6.31075 16.3831 6.77059 16.4716 7.18735 16.6687C7.35409 16.7478 7.53815 16.7835 7.72237 16.7724C7.9066 16.7612 8.08501 16.7036 8.24099 16.6049C8.39697 16.5063 8.52545 16.3698 8.61446 16.2081C8.70346 16.0464 8.75011 15.8648 8.75005 15.6802V9.84372H15.1334C15.318 9.84378 15.4996 9.79713 15.6613 9.70812C15.823 9.61912 15.9595 9.49064 16.0582 9.33466C16.1568 9.17868 16.2144 9.00027 16.2256 8.81604C16.2367 8.63182 16.2011 8.44776 16.1219 8.28102C15.9248 7.86426 15.8363 7.40442 15.8646 6.94426C15.8929 6.48411 16.037 6.03857 16.2837 5.64908C16.5303 5.25958 16.8715 4.93877 17.2753 4.71648C17.6792 4.49418 18.1328 4.37761 18.5938 4.37761C19.0548 4.37761 19.5084 4.49418 19.9123 4.71648C20.3161 4.93877 20.6573 5.25958 20.9039 5.64908C21.1506 6.03857 21.2947 6.48411 21.323 6.94426C21.3513 7.40442 21.2628 7.86426 21.0657 8.28102C20.9865 8.44776 20.9509 8.63182 20.962 8.81604C20.9732 9.00027 21.0308 9.17868 21.1294 9.33466C21.2281 9.49064 21.3646 9.61912 21.5263 9.70812C21.688 9.79713 21.8696 9.84378 22.0542 9.84372H28.4375V14.2502C28.1371 14.2157 27.8341 14.2093 27.5325 14.231C26.2595 14.3212 25.0713 14.9022 24.2185 15.8516C23.3657 16.801 22.915 18.0445 22.9615 19.3198C23.008 20.5951 23.548 21.8025 24.4676 22.6873C25.3872 23.5722 26.6145 24.0652 27.8907 24.0625C28.0734 24.0628 28.256 24.0527 28.4375 24.0324V28.4375Z" fill="#F4F4F4"/>
</svg>
