<svg width="57" height="50" viewBox="0 0 57 50" fill="none" xmlns="http://www.w3.org/2000/svg">
<path d="M46.5574 16.2246C45.9563 16.0242 45.3551 15.835 44.7539 15.6568C44.8541 15.2449 44.9432 14.833 45.0322 14.4211C46.4016 7.78594 45.4998 2.45332 42.4605 0.694335C39.5326 -0.986719 34.7566 0.761132 29.925 4.96934C29.4463 5.38125 28.9787 5.81543 28.5334 6.24961C28.2328 5.96016 27.9211 5.6707 27.6094 5.39238C22.5439 0.894726 17.4674 -0.997852 14.4281 0.772265C11.5113 2.46445 10.643 7.48535 11.8676 13.7643C11.99 14.3877 12.1236 15 12.2795 15.6234C11.567 15.8238 10.8656 16.0465 10.2088 16.2803C4.26387 18.3398 0 21.5906 0 24.9527C0 28.4262 4.54219 31.9107 10.7209 34.026C11.2219 34.193 11.7229 34.36 12.235 34.5047C12.068 35.1727 11.9232 35.8295 11.7896 36.5086C10.6207 42.6873 11.5336 47.5857 14.4504 49.2668C17.4563 51.0035 22.5105 49.2223 27.4312 44.9139C27.8209 44.5687 28.2105 44.2125 28.6002 43.834C29.09 44.3127 29.6021 44.7691 30.1143 45.2145C34.8791 49.3113 39.5883 50.9701 42.4939 49.2891C45.4998 47.5523 46.4795 42.2865 45.2104 35.874C45.1102 35.3842 44.9988 34.8832 44.8764 34.3711C45.2326 34.2709 45.5777 34.1596 45.9229 34.0482C52.3465 31.9219 57 28.4818 57 24.9527C57 21.5795 52.6137 18.3064 46.5574 16.2246ZM31.4947 6.77285C35.6361 3.16582 39.4992 1.75195 41.2582 2.76504C43.1396 3.84492 43.8633 8.20898 42.6832 13.9424C42.6053 14.3209 42.5273 14.6883 42.4272 15.0557C39.9557 14.499 37.4508 14.0982 34.9348 13.8756C33.4875 11.8049 31.9066 9.82324 30.1922 7.96406C30.6264 7.55215 31.0494 7.1625 31.4947 6.77285ZM18.6141 30.7307C19.1818 31.6992 19.7607 32.6678 20.373 33.6141C18.6363 33.4248 16.9107 33.1465 15.2074 32.7791C15.6973 31.176 16.3096 29.5172 17.0221 27.825C17.5342 28.8047 18.0574 29.7732 18.6141 30.7307ZM15.2408 17.3379C16.8439 16.9816 18.5473 16.6922 20.3174 16.4695C19.7273 17.3936 19.1484 18.3398 18.6029 19.2973C18.0574 20.2436 17.523 21.2121 17.0221 22.1918C16.3207 20.533 15.7307 18.9076 15.2408 17.3379ZM18.2912 25.0084C19.026 23.4721 19.8275 21.9691 20.6736 20.4885C21.5197 19.0078 22.4326 17.5717 23.39 16.1578C25.06 16.0354 26.7633 15.9686 28.5 15.9686C30.2367 15.9686 31.9512 16.0354 33.61 16.1578C34.5562 17.5605 35.458 18.9967 36.3152 20.4662C37.1725 21.9357 37.974 23.4387 38.7311 24.9639C37.9852 26.5002 37.1836 28.0143 36.3264 29.5061C35.4803 30.9867 34.5785 32.4229 33.6322 33.8479C31.9734 33.9703 30.2479 34.026 28.5 34.026C26.7521 34.026 25.06 33.9703 23.4234 33.8701C22.4549 32.4562 21.542 31.009 20.6848 29.5283C19.8275 28.0477 19.0371 26.5447 18.2912 25.0084ZM38.3971 30.7084C38.9648 29.7287 39.4992 28.7379 40.0225 27.7359C40.735 29.3502 41.3584 30.9867 41.9039 32.6678C40.1783 33.0574 38.4305 33.358 36.6715 33.5584C37.2727 32.6232 37.8404 31.6658 38.3971 30.7084ZM40.0002 22.1918C39.477 21.2121 38.9426 20.2324 38.3859 19.275C37.8404 18.3287 37.2727 17.3936 36.6826 16.4695C38.475 16.6922 40.1895 16.9928 41.7926 17.3602C41.2805 19.0078 40.6793 20.6109 40.0002 22.1918ZM28.5223 9.66738C29.6912 10.9365 30.7934 12.2725 31.8176 13.6529C29.6133 13.5527 27.3979 13.5527 25.1936 13.6529C26.2846 12.2168 27.409 10.8809 28.5223 9.66738ZM15.6082 2.84297C17.4785 1.75195 21.6311 3.31055 26.0063 7.18477C26.2846 7.42969 26.5629 7.69687 26.8523 7.96406C25.1268 9.82324 23.5348 11.8049 22.0764 13.8756C19.5604 14.0982 17.0666 14.4879 14.5951 15.0334C14.4504 14.4656 14.3279 13.8867 14.2055 13.3078C13.159 7.91953 13.8492 3.85605 15.6082 2.84297ZM12.8807 32.1891C12.4131 32.0555 11.9566 31.9107 11.5002 31.7549C9.12891 31.009 6.43477 29.8289 4.48652 28.2814C3.36211 27.5021 2.60508 26.2998 2.39355 24.9527C2.39355 22.9154 5.91152 20.3104 10.9881 18.5402C11.6227 18.3176 12.2684 18.1172 12.9141 17.9279C13.6711 20.3437 14.584 22.715 15.6416 25.0084C14.5729 27.3352 13.6488 29.7398 12.8807 32.1891ZM25.8615 43.0992C24.0246 44.7803 21.8982 46.1162 19.5826 47.0291C18.3469 47.6191 16.9219 47.6748 15.6527 47.1738C13.8826 46.1496 13.1479 42.2197 14.1498 36.9316C14.2723 36.3082 14.4059 35.6848 14.5617 35.0725C17.0555 35.6068 19.5715 35.9742 22.1209 36.1635C23.5904 38.2453 25.2047 40.2381 26.9303 42.1084C26.574 42.4535 26.2178 42.7875 25.8615 43.0992ZM28.5891 40.3939C27.4535 39.1693 26.318 37.8111 25.2158 36.3527C26.2846 36.3973 27.3867 36.4195 28.5 36.4195C29.6467 36.4195 30.7711 36.3973 31.8844 36.3416C30.8602 37.7555 29.758 39.1025 28.5891 40.3939ZM43.1396 43.7338C43.0395 45.092 42.3715 46.3611 41.3027 47.2184C39.5326 48.2426 35.7586 46.9066 31.684 43.4109C31.2164 43.0102 30.7488 42.576 30.2701 42.1307C31.9734 40.2492 33.5432 38.2564 34.9682 36.1635C37.5176 35.952 40.0559 35.5623 42.5607 34.9945C42.6721 35.451 42.7723 35.9074 42.8613 36.3527C43.4068 38.7574 43.4959 41.2623 43.1396 43.7338ZM45.1658 31.766C44.8541 31.8662 44.5424 31.9664 44.2195 32.0555C43.4402 29.6285 42.4828 27.2572 41.3807 24.9527C42.4494 22.6816 43.3512 20.3437 44.1082 17.9502C44.6871 18.1172 45.2438 18.2953 45.7781 18.4734C50.966 20.2547 54.6064 22.9043 54.6064 24.9305C54.6064 27.1125 50.7211 29.9291 45.1658 31.766ZM28.5 30.0961C31.3166 30.0961 33.5988 27.8139 33.5988 24.9973C33.5988 22.1807 31.3166 19.8984 28.5 19.8984C25.6834 19.8984 23.4012 22.1807 23.4012 24.9973C23.4012 27.8139 25.6834 30.0961 28.5 30.0961Z" fill="#F4F4F4"/>
</svg>
