<svg width="62" height="48" viewBox="0 0 62 48" fill="none" xmlns="http://www.w3.org/2000/svg">
<path d="M29.2356 35.9041C29.1775 36.0106 29.2066 35.9622 29.2356 35.9041V35.9041ZM53.3641 27.477C51.416 27.4765 49.4938 27.9239 47.7461 28.7847C47.1746 27.632 46.5837 26.6246 46.4869 25.8691C46.3706 24.9876 46.2447 24.4646 46.3803 23.4185C46.5159 22.3724 47.1262 20.8904 47.1165 20.7838C47.1068 20.6773 46.9809 20.1445 45.7313 20.1348C44.4818 20.1251 43.4066 20.377 43.2807 20.7063C43.06 21.3082 42.8883 21.9269 42.7673 22.5564C42.5446 23.6897 40.2683 27.7385 38.98 29.8501C38.5538 29.0268 38.1954 28.3003 38.1179 27.7192C38.0017 26.8377 37.8758 26.3147 38.0114 25.2685C38.147 24.2224 38.7572 22.7404 38.7476 22.6339C38.7379 22.5273 38.6119 21.9946 37.3624 21.9849C36.1129 21.9752 35.0377 22.2271 34.9118 22.5564C34.7859 22.8857 34.6503 23.6606 34.3984 24.4065C34.1466 25.1523 31.1148 31.8939 30.3205 33.6472C29.9137 34.5383 29.565 35.2551 29.3131 35.7394C29.2744 35.8169 29.2453 35.8653 29.226 35.9041C29.255 35.8556 29.2744 35.8072 29.2744 35.8266C29.0613 36.2431 28.9354 36.4755 28.9354 36.4755V36.4852C28.7707 36.7952 28.5867 37.0761 28.4995 37.0761C28.4414 37.0761 28.3155 36.2624 28.5285 35.1485C28.9838 32.8045 30.059 29.1624 30.0493 29.0365C30.0396 28.9687 30.2527 28.3391 29.3422 28.0001C28.4607 27.6804 28.1411 28.2132 28.0636 28.2132C27.9861 28.2132 27.928 28.4069 27.928 28.4069C27.928 28.4069 28.9063 24.2999 26.0489 24.2999C24.2666 24.2999 21.7869 26.2565 20.5664 28.0291C19.8012 28.4456 18.1449 29.3465 16.4014 30.3054C15.733 30.6735 15.0453 31.0512 14.3963 31.4096C14.3479 31.3612 14.3091 31.3128 14.2607 31.2643C10.793 27.5642 4.39039 24.9489 4.66161 19.9798C4.75847 18.1685 5.38808 13.4126 16.9728 7.63955C26.4654 2.91266 34.0594 4.21062 35.3574 7.09712C37.2365 11.2138 31.2988 18.8756 21.4382 19.9798C17.6799 20.3964 15.7039 18.9434 15.2099 18.401C14.6966 17.8295 14.6191 17.8004 14.4254 17.907C14.1057 18.0813 14.3091 18.585 14.4254 18.8853C14.7159 19.6505 15.9267 21.0066 17.9899 21.6846C19.8012 22.2755 24.2085 22.6048 29.5359 20.5417C35.522 18.2363 40.1811 11.8143 38.8154 6.43846C37.4399 0.975409 28.3833 -0.816549 19.8206 2.22494C14.7159 4.03627 9.19478 6.88403 5.22341 10.5939C0.506203 15.0108 -0.249325 18.8562 0.0606352 20.4642C1.16487 26.1694 9.03011 29.8889 12.1781 32.6398C12.0232 32.727 11.8779 32.8045 11.7423 32.8819C10.1634 33.6665 4.16761 36.8049 2.66624 40.1176C0.971143 43.8758 2.94714 46.5686 4.2451 46.9367C8.29395 48.0603 12.4397 46.0359 14.6675 42.7135C16.8953 39.3911 16.6241 35.0517 15.5974 33.0757C15.5877 33.0466 15.5683 33.0272 15.5586 32.9982C15.9655 32.756 16.382 32.5139 16.7985 32.2717C17.6024 31.7971 18.387 31.3612 19.0748 30.9834C18.6873 32.0296 18.4064 33.2888 18.2611 35.1098C18.0868 37.2408 18.9682 40.0013 20.1112 41.0862C20.6149 41.5608 21.2251 41.5705 21.6029 41.5705C22.9396 41.5705 23.5401 40.4663 24.2085 39.149C25.0318 37.541 25.7583 35.6716 25.7583 35.6716C25.7583 35.6716 24.8478 40.7278 27.3371 40.7278C28.2476 40.7278 29.1582 39.5558 29.565 38.9552V38.9649C29.565 38.9649 29.5843 38.9262 29.6328 38.8487C29.7296 38.7034 29.7781 38.6162 29.7781 38.6162V38.5872C30.1462 37.9575 30.9501 36.5143 32.1609 34.1315C33.7301 31.0512 35.2314 27.2058 35.2314 27.2058C35.3764 28.0511 35.577 28.886 35.832 29.7048C36.1032 30.625 36.6747 31.6324 37.1299 32.6107C36.7619 33.1144 36.5391 33.405 36.5391 33.405C36.5397 33.4125 36.5432 33.4194 36.5488 33.4244C36.2582 33.8118 35.9288 34.2283 35.5898 34.6352C34.35 36.1075 32.8777 37.7929 32.684 38.2772C32.4515 38.8487 32.5096 39.2749 32.9552 39.6042C33.2845 39.856 33.8657 39.8948 34.4759 39.8464C35.5898 39.7689 36.3744 39.4977 36.7522 39.3233C37.4489 39.0737 38.1075 38.7281 38.7088 38.2966C39.9196 37.4054 40.6557 36.1268 40.5879 34.4414C40.5492 33.5115 40.2489 32.5817 39.8808 31.7099C39.9874 31.5549 40.1036 31.3903 40.2102 31.2256C42.1184 28.4263 43.6004 25.3557 43.6004 25.3557C43.7453 26.201 43.946 27.0359 44.2009 27.8548C44.4334 28.6394 44.8886 29.5014 45.3051 30.3441C43.5035 31.8068 42.3896 33.5019 42.0021 34.6158C41.2854 36.679 41.8472 37.6088 42.903 37.8219C43.3776 37.9188 44.0556 37.696 44.5593 37.4829C45.3077 37.2338 46.0133 36.8712 46.6515 36.4077C47.8623 35.5166 49.0344 34.2671 48.9569 32.572C48.9278 31.8068 48.7147 31.0416 48.4338 30.3054C49.9545 29.6661 51.9305 29.3174 54.449 29.608C59.8442 30.2376 60.9 33.6084 60.6966 35.0129C60.4932 36.4174 59.3599 37.202 58.9821 37.4345C58.6044 37.667 58.4881 37.7541 58.5172 37.9285C58.5656 38.1803 58.74 38.1706 59.0596 38.1125C59.5052 38.035 61.888 36.9695 61.9946 34.3639C62.1495 31.0706 58.9821 27.448 53.3738 27.477H53.3641ZM11.7907 41.493C10.0084 43.44 7.50937 44.1761 6.43419 43.5562C5.29121 42.8878 5.74647 40.0207 7.94525 37.9479C9.28195 36.6886 11.0061 35.5263 12.1491 34.8095C12.4106 34.6545 12.7884 34.4221 13.2533 34.1412C13.3308 34.0927 13.3696 34.0734 13.3696 34.0734C13.4567 34.0152 13.5536 33.9668 13.6505 33.9087C14.4544 36.8533 13.6795 39.4492 11.8004 41.493H11.7907ZM24.809 32.6398C24.1891 34.1605 22.8815 38.035 22.0872 37.8316C21.4091 37.6573 20.9926 34.703 21.9516 31.7971C22.4359 30.3345 23.4626 28.5909 24.0729 27.9129C25.0512 26.8183 26.1264 26.4696 26.3782 26.9055C26.7172 27.477 25.1965 31.6905 24.809 32.6398ZM35.5608 37.7735C35.2992 37.9091 35.0571 37.9963 34.9408 37.9285C34.8537 37.8801 35.0474 37.696 35.0474 37.696C35.0474 37.696 36.3938 36.2528 36.9265 35.5941C37.2365 35.2066 37.5949 34.7514 37.9823 34.2477C37.9823 34.2961 37.992 34.3446 37.992 34.4027C37.9823 36.1365 36.3163 37.3086 35.5608 37.7735ZM43.8522 35.8847C43.6585 35.7491 43.6875 35.2938 44.3365 33.8796C44.5884 33.3275 45.1695 32.3976 46.1769 31.5065C46.291 31.8438 46.3531 32.1966 46.3609 32.5526C46.3513 34.732 44.7918 35.5457 43.8522 35.8847Z" fill="#F4F4F4"/>
</svg>
