<svg width="66" height="41" viewBox="0 0 66 41" fill="none" xmlns="http://www.w3.org/2000/svg">
<path d="M16.5 13.9001C18.7 5.10007 24.2 0.700073 33 0.700073C46.2 0.700073 47.85 10.6001 54.45 12.2501C58.85 13.3501 62.7 11.7001 66 7.30007C63.8 16.1001 58.3 20.5001 49.5 20.5001C36.3 20.5001 34.65 10.6001 28.05 8.95007C23.65 7.85007 19.8 9.50007 16.5 13.9001ZM0 33.7001C2.2 24.9001 7.7 20.5001 16.5 20.5001C29.7 20.5001 31.35 30.4001 37.95 32.0501C42.35 33.1501 46.2 31.5001 49.5 27.1001C47.3 35.9001 41.8 40.3001 33 40.3001C19.8 40.3001 18.15 30.4001 11.55 28.7501C7.15 27.6501 3.3 29.3001 0 33.7001Z" fill="#F4F4F4"/>
</svg>
