<svg width="46" height="46" viewBox="0 0 46 46" fill="none" xmlns="http://www.w3.org/2000/svg">
<g clip-path="url(#clip0_1228_82)">
<rect width="46" height="46" fill="#F4F4F4"/>
<path d="M1 23V0H47V46H1" fill="#F4F4F4"/>
<path d="M10.0854 23.0806V24.9551H16.0654V41.9751H20.309V24.9551H26.289V23.1151C26.289 22.0801 26.2889 21.2406 26.243 21.2176C26.243 21.1831 22.5975 21.1716 18.17 21.1716L10.1199 21.2061V23.0921L10.0854 23.0806ZM36.961 21.1601C38.134 21.4361 39.031 21.9651 39.836 22.8046C40.2615 23.2646 40.8939 24.0696 40.94 24.2766C40.94 24.3456 38.9505 25.6911 37.743 26.4386C37.697 26.4731 37.513 26.2776 37.329 25.9786C36.731 25.1276 36.1215 24.7596 35.167 24.6906C33.787 24.5986 32.867 25.3231 32.867 26.5306C32.867 26.8986 32.936 27.1056 33.074 27.4046C33.3845 28.0371 33.9594 28.4166 35.742 29.1986C39.031 30.6131 40.4569 31.5446 41.3194 32.8786C42.2969 34.3736 42.5154 36.7196 41.86 38.4791C41.124 40.3996 39.33 41.6991 36.7655 42.1246C35.9605 42.2626 34.1205 42.2396 33.258 42.0901C31.418 41.7451 29.6585 40.8251 28.5775 39.6406C28.152 39.1806 27.3355 37.9501 27.3815 37.8696L27.8185 37.5936L29.5435 36.5931L30.843 35.8341L31.142 36.2366C31.5215 36.8346 32.3724 37.6396 32.867 37.9156C34.3619 38.6861 36.3629 38.5826 37.3519 37.6856C37.7775 37.2946 37.9615 36.8806 37.9615 36.3056C37.9615 35.7766 37.881 35.5351 37.6165 35.1326C37.2485 34.6266 36.5125 34.2126 34.4425 33.2926C32.062 32.2806 31.0499 31.6366 30.107 30.6476C29.5665 30.0496 29.072 29.1181 28.842 28.3476C28.6695 27.6806 28.6119 26.0476 28.773 25.3921C29.2675 23.0921 31.004 21.4821 33.488 21.0221C34.293 20.8611 36.1905 20.9301 36.984 21.1371L36.961 21.1601Z" fill="#111111"/>
</g>
<defs>
<clipPath id="clip0_1228_82">
<rect width="46" height="46" fill="white"/>
</clipPath>
</defs>
</svg>
