<svg width="42" height="41" viewBox="0 0 42 41" fill="none" xmlns="http://www.w3.org/2000/svg">
<path d="M30.4014 23.0999L25.2979 20.5481C25.097 20.448 24.8732 20.4027 24.6492 20.4167C24.4252 20.4307 24.2088 20.5035 24.022 20.6279L21.6791 22.1908C20.6036 21.5996 19.7186 20.7146 19.1274 19.6391L20.6903 17.2962C20.8147 17.1094 20.8875 16.893 20.9015 16.669C20.9155 16.445 20.8702 16.2212 20.7701 16.0203L18.2183 10.9168C18.1125 10.7032 17.949 10.5235 17.7464 10.3981C17.5437 10.2726 17.3099 10.2065 17.0716 10.2071C15.3796 10.2071 13.757 10.8792 12.5606 12.0756C11.3643 13.2719 10.6921 14.8946 10.6921 16.5865C10.6964 20.3075 12.1764 23.8748 14.8075 26.5059C17.4386 29.137 21.0059 30.6171 24.7269 30.6213C25.5647 30.6213 26.3942 30.4563 27.1682 30.1357C27.9422 29.8151 28.6455 29.3452 29.2378 28.7528C29.8302 28.1604 30.3001 27.4571 30.6207 26.6831C30.9413 25.9092 31.1063 25.0796 31.1063 24.2418C31.1065 24.0048 31.0406 23.7724 30.9161 23.5707C30.7916 23.369 30.6134 23.206 30.4014 23.0999ZM24.7269 28.0695C21.6825 28.0661 18.7637 26.8552 16.6109 24.7025C14.4582 22.5497 13.2473 19.631 13.2439 16.5865C13.2437 15.7016 13.5501 14.8439 14.111 14.1594C14.6719 13.4749 15.4527 13.0059 16.3204 12.8322L18.1513 16.5004L16.5931 18.8193C16.4767 18.994 16.4051 19.1947 16.3848 19.4036C16.3645 19.6125 16.3961 19.8232 16.4767 20.0171C17.3896 22.1867 19.1156 23.9127 21.2852 24.8256C21.4796 24.9098 21.6919 24.9442 21.903 24.9258C22.114 24.9075 22.3172 24.8368 22.4941 24.7203L24.8242 23.1669L28.4924 24.9978C28.3173 25.8666 27.8463 26.6477 27.1596 27.2078C26.4729 27.768 25.6131 28.0726 24.7269 28.0695ZM20.8992 3.82764C18.0356 3.82701 15.2206 4.56779 12.7282 5.97787C10.2358 7.38795 8.15097 9.4193 6.67656 11.8742C5.20215 14.3291 4.38843 17.1239 4.3146 19.9865C4.24077 22.8492 4.90934 25.6822 6.25524 28.2099L4.44508 33.6403C4.29513 34.09 4.27337 34.5724 4.38223 35.0337C4.4911 35.495 4.72627 35.9169 5.06141 36.252C5.39655 36.5871 5.8184 36.8223 6.27969 36.9312C6.74097 37.04 7.22346 37.0183 7.67307 36.8683L13.1036 35.0582C15.328 36.2413 17.7928 36.9022 20.3108 36.9905C22.8288 37.0789 25.3338 36.5924 27.6357 35.5681C29.9376 34.5438 31.9759 33.0085 33.5959 31.0788C35.2159 29.1491 36.375 26.8757 36.9852 24.4312C37.5954 21.9867 37.6407 19.4353 37.1176 16.9706C36.5945 14.506 35.5168 12.1929 33.9663 10.2069C32.4158 8.22099 30.4332 6.61437 28.1691 5.50902C25.905 4.40368 23.4188 3.82867 20.8992 3.82764ZM20.8992 34.4489C18.432 34.4506 16.008 33.8009 13.8723 32.5654C13.7159 32.4747 13.5421 32.4183 13.3623 32.3999C13.1824 32.3815 13.0008 32.4015 12.8293 32.4586L6.86448 34.4489L8.85327 28.4842C8.9106 28.3128 8.93086 28.1311 8.91271 27.9513C8.89456 27.7715 8.83842 27.5976 8.74801 27.4411C7.20095 24.7664 6.57981 21.6559 6.98095 18.5921C7.38209 15.5284 8.78308 12.6826 10.9666 10.4964C13.1501 8.3101 15.9941 6.90551 19.0573 6.5005C22.1206 6.09549 25.2319 6.7127 27.9085 8.25638C30.5852 9.80006 32.6776 12.1839 33.8612 15.0381C35.0448 17.8924 35.2534 21.0574 34.4546 24.0423C33.6559 27.0272 31.8944 29.665 29.4435 31.5466C26.9925 33.4282 23.9891 34.4484 20.8992 34.4489Z" fill="#B9B8B8"/>
</svg>
